<?xml version="1.0" encoding="UTF-8"?><svg width="512" height="512" version="1.1" viewBox="0 0 512 512" xmlns="http://www.w3.org/2000/svg" xmlns:xlink="http://www.w3.org/1999/xlink"><!--Generated by IJSVG (https://github.com/iconjar/IJSVG)--><g transform="scale(8)"><path fill="#000" d="M56,10h-48c-1.104,0 -2,0.896 -2,2v32c0,1.104 0.896,2 2,2h6v6c0,0.737 0.406,1.415 1.056,1.764c0.296,0.158 0.62,0.236 0.944,0.236c0.388,0 0.775,-0.113 1.109,-0.336l11.496,-7.664h27.395c1.104,0 2,-0.896 2,-2v-32c0,-1.104 -0.896,-2 -2,-2Zm-2,32h-26c-0.395,0 -0.781,0.117 -1.109,0.336l-8.891,5.927v-4.263c0,-1.104 -0.896,-2 -2,-2h-6v-28h44v28Z"></path></g></svg>