<?xml version="1.0" encoding="utf-8"?>
<!-- Generator: Adobe Illustrator 22.0.1, SVG Export Plug-In . SVG Version: 6.00 Build 0)  -->
<svg version="1.1" id="Layer_1" xmlns="http://www.w3.org/2000/svg" xmlns:xlink="http://www.w3.org/1999/xlink" x="0px" y="0px"
	 viewBox="0 0 68 68" style="enable-background:new 0 0 68 68;" xml:space="preserve">
<g>
	<path d="M62.9840851,33.0245438C59.7509804,29.1872482,48.10532,16.6652851,33.9925499,16.6652851
		c-14.1015816,0-25.744442,12.5219631-28.9766331,16.3592587c-0.4769826,0.5658302-0.4769826,1.3860245,0,1.9509125
		C8.248107,38.813694,19.8909683,51.334713,33.9925499,51.334713c14.1127701,0,25.7584305-12.521019,28.9915352-16.3592567
		C63.4610672,34.4105682,63.4610672,33.590374,62.9840851,33.0245438 M33.9925499,45.233181
		c-6.1941509,0-11.2332363-5.0241013-11.2332363-11.233181c0-6.2081375,5.0390854-11.2322655,11.2332363-11.2322655
		c6.209053,0,11.2471657,5.024128,11.2471657,11.2322655C45.2397156,40.2090797,40.2016029,45.233181,33.9925499,45.233181"/>
	<path d="M33.9971161,29.6245575c-2.4129391,0-4.3760109,1.9565372-4.3760109,4.3760147
		c0,2.4185333,1.9630718,4.3750687,4.3760109,4.3750687c2.4185371,0,4.3816071-1.9565353,4.3816071-4.3750687
		C38.3787231,31.5810947,36.4156532,29.6245575,33.9971161,29.6245575"/>
</g>
</svg>
