<svg width="17" height="17" viewBox="0 0 17 17" fill="none" xmlns="http://www.w3.org/2000/svg">
<g clip-path="url(#clip0_166_1233)">
<rect width="17" height="17" fill="white"/>
<path d="M7.91594 14.535C11.6363 14.535 14.6522 11.5191 14.6522 7.79875C14.6522 4.07842 11.6363 1.0625 7.91594 1.0625C4.19561 1.0625 1.17969 4.07842 1.17969 7.79875C1.17969 11.5191 4.19561 14.535 7.91594 14.535Z" stroke="#333333" stroke-width="1.5" stroke-miterlimit="10" stroke-linecap="round"/>
<path d="M1.58984 10.1157C1.58984 10.1157 3.80918 2.99325 11.4498 2.06445" stroke="#333333" stroke-width="1.5" stroke-miterlimit="10" stroke-linecap="round"/>
<path d="M4.39648 13.5379C4.39648 13.5379 5.97545 6.80168 13.6845 4.31836" stroke="#333333" stroke-width="1.5" stroke-miterlimit="10" stroke-linecap="round"/>
<path d="M9.5 6.41504C10.995 7.94746 12.3925 9.57197 13.6845 11.279" stroke="#333333" stroke-width="1.5" stroke-miterlimit="10" stroke-linecap="round"/>
<path d="M6.51758 9.33887L11.0687 13.7482" stroke="#333333" stroke-width="1.5" stroke-miterlimit="10" stroke-linecap="round"/>
<path d="M13.4004 11.7734C13.4004 11.7734 12.8725 14.5745 16.2944 15.2296" stroke="#333333" stroke-width="1.5" stroke-miterlimit="10" stroke-linecap="square"/>
</g>
<defs>
<clipPath id="clip0_166_1233">
<rect width="17" height="17" fill="white"/>
</clipPath>
</defs>
</svg>
